<svg id="Layer_1" data-name="Layer 1" xmlns="http://www.w3.org/2000/svg" viewBox="0 0 1347.06 124.58"><defs><style>.cls-1{fill:#fff;}.cls-2{fill:#b35857;}</style></defs><title>Artboard 1</title><path id="plotcon_logo_location" class="cls-1" d="M1066.11,45.35V45c0-10.46,7.87-17.47,18.15-17.47,10.46,0,18.19,6.58,18.19,17.23v.38c0,10.56-7.25,17.76-18.34,17.76S1066.11,55.67,1066.11,45.35Zm26.07-.1v-.38c0-6.1-3.07-9.7-7.92-9.7s-7.87,3.5-7.87,9.75v.38c0,6.24,3.17,9.84,7.92,9.84S1092.17,51.4,1092.17,45.25ZM1118.67,28h12.72l10.9,34.32h-10.42L1130,55.91h-11.38l-1.82,6.38h-9.17Zm1.92,21.17h7.54l-3.74-13.2ZM1151,28h9.89V41.55L1171.23,28h10.27l-12.58,15.94,13.25,18.39H1170.8l-9.89-14.35V62.29H1151Zm39.65,0h9.89V54.66h13v7.63h-22.85Zm40.94,0h12.72l10.9,34.32h-10.42L1243,55.91h-11.38l-1.82,6.38h-9.17Zm1.92,21.17h7.54l-3.74-13.2ZM1264,28h11.09l11,19.34V28h8.59V62.29h-9.5L1272.6,40.74V62.29H1264Zm42.1,0h12.48c12.19,0,18.39,6.1,18.39,16.75v.38c0,10.71-6.34,17.19-18.43,17.19h-12.43Zm12.15,26.74c5.86,0,8.45-3.07,8.45-9.46v-.38c0-6.53-2.59-9.31-8.54-9.31h-2.16V54.71ZM1106.29,89.82v-.19a8.39,8.39,0,0,1,8.76-8.76c4.46,0,7.56,2.06,8,6.6H1118a2.68,2.68,0,0,0-2.88-2.71c-2.21,0-3.6,1.73-3.6,4.85v.19c0,3.1,1.32,4.85,3.67,4.85a3,3,0,0,0,3.19-2.81h4.9c-.34,4.44-3.55,6.74-8,6.74C1109.25,98.58,1106.29,95.08,1106.29,89.82Zm27.22-8.69h6.36l5.45,17.16h-5.21l-.91-3.19h-5.69l-.91,3.19H1128Zm1,10.58h3.77l-1.87-6.6Zm17.14-10.58h4.94V94.48H1163v3.82h-11.42Zm18.22,0h5V98.29h-5Zm12.67,0h11.59v3.82h-6.65V88.6h5.3v3.62h-5.3v6.07h-4.94Zm17.06,8.69v-.19c0-5.23,3.94-8.74,9.07-8.74s9.1,3.29,9.1,8.62v.19c0,5.28-3.62,8.88-9.17,8.88S1199.56,95,1199.56,89.82Zm13,0v-.19c0-3-1.54-4.85-4-4.85s-3.94,1.75-3.94,4.87v.19c0,3.12,1.58,4.92,4,4.92S1212.59,92.84,1212.59,89.77Zm11.85-8.64h6.72c4.49,0,7,1.82,7,5.45v.1a4.49,4.49,0,0,1-3.1,4.51l4.1,7.1H1234l-3.48-6.14h-1.15v6.14h-4.9Zm6.48,7.82c1.66,0,2.47-.7,2.47-2.09v-.1c0-1.39-.86-1.94-2.45-1.94h-1.61V89Zm14.57-7.82H1251l5.5,9.67V81.13h4.3V98.29h-4.75l-6.26-10.78V98.29h-4.32Zm23.06,0h5V98.29h-5Zm16.82,0h6.36l5.45,17.16H1292l-.91-3.19h-5.69l-.91,3.19h-4.58Zm1,10.58h3.77l-1.87-6.6Z"/><path id="plotcon_logo" class="cls-2" d="M401.22,49.56q0,11-3.82,18.71A33.4,33.4,0,0,1,387,80.76a44.73,44.73,0,0,1-15.44,7,77.54,77.54,0,0,1-19,2.23V115.3H318.6V9.12h33.91a77.63,77.63,0,0,1,19,2.23,44.77,44.77,0,0,1,15.44,7,33.42,33.42,0,0,1,10.43,12.5Q401.22,38.57,401.22,49.56Zm-15.44,0a29,29,0,0,0-2.47-12.42,22.54,22.54,0,0,0-6.92-8.6,31.08,31.08,0,0,0-10.59-5,50.39,50.39,0,0,0-13.29-1.67h-18v80.71h4.14V77.26h13.85a50.39,50.39,0,0,0,13.29-1.67,31.1,31.1,0,0,0,10.59-5,22.54,22.54,0,0,0,6.92-8.6A29,29,0,0,0,385.78,49.56Zm-4.46,0A24.76,24.76,0,0,1,378.93,61a19.47,19.47,0,0,1-6.37,7.32,26.82,26.82,0,0,1-9.15,3.9,48.38,48.38,0,0,1-10.9,1.19H338.66V25.68h13.85a48.38,48.38,0,0,1,10.9,1.19,26.88,26.88,0,0,1,9.15,3.9,19.51,19.51,0,0,1,6.37,7.32A24.77,24.77,0,0,1,381.32,49.56ZM352.51,61.34h1.43q6.69,0,9.63-3.1t2.95-8.68q0-5.57-2.95-8.68t-9.63-3.1h-1.43ZM417.14,9.12h35.34V87.44h29.29V115.3H417.14Zm55.72,93.45V98.75H437.2V21.86h-4.14v80.71Zm15.28-40.28a54.24,54.24,0,0,1,4.38-21.65A55.69,55.69,0,0,1,522.21,11a55.73,55.73,0,0,1,43.3,0A55.69,55.69,0,0,1,595.2,40.64a55.73,55.73,0,0,1,0,43.3,55.69,55.69,0,0,1-29.69,29.69,55.72,55.72,0,0,1-43.3,0,55.69,55.69,0,0,1-29.69-29.69A54.23,54.23,0,0,1,488.14,62.29Zm15,0a39.63,39.63,0,0,0,3.18,15.84A41.07,41.07,0,0,0,528,99.86a41,41,0,0,0,31.68,0,41.07,41.07,0,0,0,21.73-21.73,41,41,0,0,0,0-31.68A41.07,41.07,0,0,0,559.7,24.72a41,41,0,0,0-31.68,0,41.07,41.07,0,0,0-21.73,21.73A39.64,39.64,0,0,0,503.1,62.29Zm40.75,36.61A35.41,35.41,0,0,1,529.61,96a37.26,37.26,0,0,1-19.5-19.5,36.85,36.85,0,0,1,0-28.5,37.26,37.26,0,0,1,19.5-19.5,36.85,36.85,0,0,1,28.5,0A37.26,37.26,0,0,1,577.61,48a36.85,36.85,0,0,1,0,28.5A37.26,37.26,0,0,1,558.1,96,35.41,35.41,0,0,1,543.86,98.91ZM521.57,62.29A21.64,21.64,0,0,0,523.32,71a22.36,22.36,0,0,0,11.86,11.86,22.37,22.37,0,0,0,17.35,0A22.36,22.36,0,0,0,564.39,71a22.37,22.37,0,0,0,0-17.35,22.36,22.36,0,0,0-11.86-11.86,22.37,22.37,0,0,0-17.35,0,22.36,22.36,0,0,0-11.86,11.86A21.65,21.65,0,0,0,521.57,62.29ZM625.52,37H605.94V9.12h74.18V37H660.54V115.3h-35Zm19.58,65.59V25.68h22.77V21.86H618.2v3.82H641v76.89Zm41.39-40.28a57.19,57.19,0,0,1,4.46-23A53.61,53.61,0,0,1,703,21.7a52.76,52.76,0,0,1,17.83-11.22,60.05,60.05,0,0,1,21.65-3.9,67.64,67.64,0,0,1,16.16,1.75,76.63,76.63,0,0,1,12.18,4,57.18,57.18,0,0,1,10.19,5.57L764.34,47.33a56.83,56.83,0,0,0-5.57-3.66,53.72,53.72,0,0,0-6.45-2.47A28,28,0,0,0,743.8,40a23.06,23.06,0,0,0-9.07,1.75,23.29,23.29,0,0,0-7.24,4.78,21.9,21.9,0,0,0-4.86,7.08,21.65,21.65,0,0,0-1.75,8.68A20.84,20.84,0,0,0,722.71,71a22.28,22.28,0,0,0,5,7.08,23.72,23.72,0,0,0,7.48,4.78,24.62,24.62,0,0,0,9.39,1.75,29.71,29.71,0,0,0,9.07-1.27,33.19,33.19,0,0,0,6.69-2.87,24.53,24.53,0,0,0,5.57-4.14l16.72,29.45A47.28,47.28,0,0,1,772.46,112a86.33,86.33,0,0,1-12.26,4.14A63.84,63.84,0,0,1,743.8,118,63.09,63.09,0,0,1,720.88,114a54,54,0,0,1-18.15-11.38A51.66,51.66,0,0,1,690.79,85,58.19,58.19,0,0,1,686.49,62.29Zm20.06,0A38.83,38.83,0,0,1,709.18,48a34.83,34.83,0,0,1,7.4-11.62,34.48,34.48,0,0,1,11.62-7.8,39.2,39.2,0,0,1,15.28-2.87,44.39,44.39,0,0,1,7.4.56,33.49,33.49,0,0,1,5.49,1.35A21,21,0,0,1,761,29.5l2.23-3.82q-2.55-1.11-5.41-2.07a61.24,61.24,0,0,0-6.21-1.43,46,46,0,0,0-8.12-.64A42.63,42.63,0,0,0,728,24.4a39.7,39.7,0,0,0-13.05,8.2,40.2,40.2,0,0,0-12.5,29.69,41.78,41.78,0,0,0,3.26,16.87,38,38,0,0,0,9,12.82,40,40,0,0,0,13.37,8.2A45.86,45.86,0,0,0,744.28,103a42.21,42.21,0,0,0,8.6-.8,51.35,51.35,0,0,0,6.53-1.75A31.94,31.94,0,0,0,764.82,98l-2.23-3.82a20.12,20.12,0,0,1-4.78,2.39,35.71,35.71,0,0,1-5.73,1.67,37.59,37.59,0,0,1-7.8.72A41.28,41.28,0,0,1,728.52,96a34.93,34.93,0,0,1-11.86-7.8,34.16,34.16,0,0,1-7.48-11.62A38.83,38.83,0,0,1,706.55,62.29Zm76.1,0A54.24,54.24,0,0,1,787,40.64,55.69,55.69,0,0,1,816.71,11,55.73,55.73,0,0,1,860,11,55.69,55.69,0,0,1,889.7,40.64a55.73,55.73,0,0,1,0,43.3A55.69,55.69,0,0,1,860,113.63a55.72,55.72,0,0,1-43.3,0A55.69,55.69,0,0,1,787,83.94,54.23,54.23,0,0,1,782.65,62.29Zm15,0a39.63,39.63,0,0,0,3.18,15.84,41.07,41.07,0,0,0,21.73,21.73,41,41,0,0,0,31.68,0,41.07,41.07,0,0,0,21.73-21.73,41,41,0,0,0,0-31.68A41.07,41.07,0,0,0,854.2,24.72a41,41,0,0,0-31.68,0,41.07,41.07,0,0,0-21.73,21.73A39.64,39.64,0,0,0,797.61,62.29Zm40.75,36.61A35.41,35.41,0,0,1,824.11,96a37.26,37.26,0,0,1-19.5-19.5,36.85,36.85,0,0,1,0-28.5,37.26,37.26,0,0,1,19.5-19.5,36.85,36.85,0,0,1,28.5,0A37.26,37.26,0,0,1,872.11,48a36.85,36.85,0,0,1,0,28.5A37.26,37.26,0,0,1,852.61,96,35.41,35.41,0,0,1,838.36,98.91ZM816.08,62.29A21.64,21.64,0,0,0,817.83,71a22.36,22.36,0,0,0,11.86,11.86,22.37,22.37,0,0,0,17.35,0A22.36,22.36,0,0,0,858.9,71a22.37,22.37,0,0,0,0-17.35A22.36,22.36,0,0,0,847,41.76a22.37,22.37,0,0,0-17.35,0,22.36,22.36,0,0,0-11.86,11.86A21.65,21.65,0,0,0,816.08,62.29ZM910.8,9.12h27.86L967.95,50V9.12h33.27V115.3h-28L944.07,74.55V115.3H910.8Zm18.94,93.45V29l52.53,73.55h4.14V21.86h-4.14V95.4L929.74,21.86H925.6v80.71Z"/><path id="plotcon_logo_date" class="cls-1" d="M36.1,28H48.68V62.29H38.89V40.93l-8.4,21.36H27.22l-8.3-21.36V62.29H10.13V28H23l6.58,18.29Zm56,34.32H81.66l-1.82-6.38H68.45l-1.82,6.38H57.46L68.45,28H81.17ZM77.91,49.14l-3.74-13.2-3.79,13.2Zm32.4-9.6L104.5,28H93.8L105,47.6V62.29h9.89V47.6L125.53,28h-9.41Zm55.92,10.75c3.84-3.7,6.48-7.25,6.48-12,0-6.34-4.46-10.85-12.87-10.85s-13.49,4.37-13.83,13h8.93c.43-4.08,2-5.57,4.42-5.57S163,36.42,163,38.72c0,2.88-2.26,5.81-5.66,9.46l-12,12.72v1.39H173V54.95H161.43Zm15-1.25h21.55V44H181.25Zm46.8-9.94c-4.27,0-6.72,1.78-8,3.65l.19-7.58h16V28H213.12l-.72,20.21h5.86a7,7,0,0,1,5.66-2.45c3,0,4.66,1.82,4.66,4.9,0,2.74-1.3,4.85-4.13,4.85-3.17,0-4.13-1.58-4.46-4h-8.93c.24,6.43,4.37,11.38,13.49,11.38,8.69,0,13.92-4.8,13.92-12.1S234.34,39.11,228.05,39.11ZM99.2,92.29c1.92-1.85,3.24-3.62,3.24-6,0-3.17-2.23-5.42-6.43-5.42s-6.74,2.18-6.91,6.48h4.46c.22-2,1-2.78,2.21-2.78a1.71,1.71,0,0,1,1.82,1.92c0,1.44-1.13,2.9-2.83,4.73l-6,6.36v.7h13.8V94.62H96.8Zm25-3v.67c0,5.45-3.12,8.64-8,8.64s-7.82-3.1-7.82-8.5v-.72c0-5.42,3.38-8.47,7.92-8.47S124.23,83.7,124.23,89.27Zm-4.92.07c0-3.14-.91-4.73-3-4.73s-3,1.56-3,4.73v.72c0,3.19.94,4.7,3,4.7s3-1.56,3-4.73Zm10.87-5.45V88l3.26-2V98.29h4.92V81.13h-4.25Zm14.93,1.22H152l-4.8,13.18h5l6-16.66v-.5H145.11Z"/></svg>